<svg
  class="wiggle-light-animation"
  width="67"
  height="67"
  viewBox="0 0 67 67"
  fill="none"
  xmlns="http://www.w3.org/2000/svg"
>
  <path
    d="M11.1666 22.3333V16.75C11.1666 15.2692 11.7549 13.8491 12.8019 12.802C13.849 11.7549 15.2692 11.1667 16.75 11.1667H22.3333M11.1666 44.6667V50.25C11.1666 51.7308 11.7549 53.1509 12.8019 54.198C13.849 55.2451 15.2692 55.8333 16.75 55.8333H22.3333M44.6666 11.1667H50.25C51.7308 11.1667 53.1509 11.7549 54.198 12.802C55.2451 13.8491 55.8333 15.2692 55.8333 16.75V22.3333M44.6666 55.8333H50.25C51.7308 55.8333 53.1509 55.2451 54.198 54.198C55.2451 53.1509 55.8333 51.7308 55.8333 50.25V44.6667M19.5416 33.5H47.4583"
    class="path"
    stroke="#8600D9"
    stroke-width="4.06061"
    stroke-linecap="round"
    stroke-linejoin="round"
  />
</svg>