<svg width="67" height="67" viewBox="0 0 67 67" fill="none" xmlns="http://www.w3.org/2000/svg">
<path d="M26.1495 6.28125H26.2417C26.797 6.28125 27.3295 6.50184 27.7222 6.89449C28.1148 7.28715 28.3354 7.8197 28.3354 8.375C28.3354 8.9303 28.1148 9.46285 27.7222 9.85551C27.3295 10.2482 26.797 10.4688 26.2417 10.4688C23.0815 10.4688 20.8342 10.4688 19.0783 10.6139C17.3474 10.7535 16.2726 11.0243 15.4212 11.457C13.7144 12.3268 12.3268 13.7144 11.457 15.4212C11.0243 16.2726 10.7563 17.3474 10.6139 19.0783C10.4715 20.837 10.4688 23.0815 10.4688 26.2417C10.4688 26.797 10.2482 27.3295 9.85551 27.7222C9.46285 28.1148 8.9303 28.3354 8.375 28.3354C7.8197 28.3354 7.28715 28.1148 6.89449 27.7222C6.50184 27.3295 6.28125 26.797 6.28125 26.2417V26.1495C6.28125 23.101 6.28125 20.6835 6.44037 18.7377C6.60229 16.7444 6.94287 15.061 7.72454 13.5228C8.99663 11.027 11.0264 8.99822 13.5228 7.72733C15.0582 6.94287 16.7444 6.60229 18.7377 6.44037C20.6835 6.28125 23.101 6.28125 26.1495 6.28125ZM47.9245 10.6139C46.1658 10.4715 43.9185 10.4688 40.7583 10.4688C40.203 10.4688 39.6705 10.2482 39.2778 9.85551C38.8852 9.46285 38.6646 8.9303 38.6646 8.375C38.6646 7.8197 38.8852 7.28715 39.2778 6.89449C39.6705 6.50184 40.203 6.28125 40.7583 6.28125H40.8505C43.899 6.28125 46.3165 6.28125 48.2623 6.44037C50.2556 6.60229 51.939 6.94287 53.48 7.72454C55.9747 8.99711 58.0025 11.0269 59.2727 13.5228C60.0571 15.0582 60.3977 16.7444 60.5596 18.7377C60.7188 20.6835 60.7188 23.101 60.7188 26.1495V26.2417C60.7188 26.797 60.4982 27.3295 60.1055 27.7222C59.7129 28.1148 59.1803 28.3354 58.625 28.3354C58.0697 28.3354 57.5371 28.1148 57.1445 27.7222C56.7518 27.3295 56.5312 26.797 56.5312 26.2417C56.5312 23.0815 56.5312 20.8342 56.3861 19.0783C56.2465 17.3474 55.9757 16.2726 55.543 15.4212C54.6732 13.7144 53.2856 12.3268 51.5788 11.457C50.7274 11.0243 49.6554 10.7563 47.9245 10.6139ZM22.3333 20.2396C22.8886 20.2396 23.4212 20.4602 23.8138 20.8528C24.2065 21.2455 24.4271 21.778 24.4271 22.3333V26.5208C24.4271 27.0761 24.2065 27.6087 23.8138 28.0013C23.4212 28.394 22.8886 28.6146 22.3333 28.6146C21.778 28.6146 21.2455 28.394 20.8528 28.0013C20.4602 27.6087 20.2396 27.0761 20.2396 26.5208V22.3333C20.2396 21.778 20.4602 21.2455 20.8528 20.8528C21.2455 20.4602 21.778 20.2396 22.3333 20.2396ZM44.6667 20.2396C45.222 20.2396 45.7545 20.4602 46.1472 20.8528C46.5398 21.2455 46.7604 21.778 46.7604 22.3333V26.5208C46.7604 27.0761 46.5398 27.6087 46.1472 28.0013C45.7545 28.394 45.222 28.6146 44.6667 28.6146C44.1114 28.6146 43.5788 28.394 43.1862 28.0013C42.7935 27.6087 42.5729 27.0761 42.5729 26.5208V22.3333C42.5729 21.778 42.7935 21.2455 43.1862 20.8528C43.5788 20.4602 44.1114 20.2396 44.6667 20.2396ZM33.5 25.125C34.0553 25.125 34.5879 25.3456 34.9805 25.7382C35.3732 26.1309 35.5938 26.6635 35.5938 27.2188V38.3854C35.5938 38.9407 35.3732 39.4733 34.9805 39.8659C34.5879 40.2586 34.0553 40.4792 33.5 40.4792H30.7083C30.153 40.4792 29.6205 40.2586 29.2278 39.8659C28.8352 39.4733 28.6146 38.9407 28.6146 38.3854C28.6146 37.8301 28.8352 37.2976 29.2278 36.9049C29.6205 36.5123 30.153 36.2917 30.7083 36.2917H31.4062V27.2188C31.4062 26.6635 31.6268 26.1309 32.0195 25.7382C32.4122 25.3456 32.9447 25.125 33.5 25.125ZM8.375 38.6646C8.9303 38.6646 9.46285 38.8852 9.85551 39.2778C10.2482 39.6705 10.4688 40.203 10.4688 40.7583C10.4688 43.9213 10.4688 46.1658 10.6139 47.9218C10.7535 49.6526 11.0243 50.7274 11.457 51.5788C12.3268 53.2856 13.7144 54.6732 15.4212 55.543C16.2726 55.9757 17.3474 56.2437 19.0783 56.3861C20.837 56.5285 23.0815 56.5312 26.2417 56.5312C26.797 56.5312 27.3295 56.7518 27.7222 57.1445C28.1148 57.5371 28.3354 58.0697 28.3354 58.625C28.3354 59.1803 28.1148 59.7129 27.7222 60.1055C27.3295 60.4982 26.797 60.7188 26.2417 60.7188H26.1495C23.101 60.7188 20.6835 60.7188 18.7377 60.5596C16.7444 60.3977 15.061 60.0571 13.5228 59.2755C11.0275 58.0041 8.9987 55.9753 7.72733 53.48C6.94287 51.939 6.60229 50.2556 6.44037 48.2623C6.28125 46.3165 6.28125 43.899 6.28125 40.8505V40.7583C6.28125 40.203 6.50184 39.6705 6.89449 39.2778C7.28715 38.8852 7.8197 38.6646 8.375 38.6646ZM58.625 38.6646C59.1803 38.6646 59.7129 38.8852 60.1055 39.2778C60.4982 39.6705 60.7188 40.203 60.7188 40.7583V40.8505C60.7188 43.899 60.7188 46.3165 60.5596 48.2623C60.3977 50.2556 60.0571 51.939 59.2755 53.48C58.0036 55.9743 55.9749 58.002 53.48 59.2727C51.939 60.0571 50.2556 60.3977 48.2623 60.5596C46.3165 60.7188 43.899 60.7188 40.8505 60.7188H40.7583C40.203 60.7188 39.6705 60.4982 39.2778 60.1055C38.8852 59.7129 38.6646 59.1803 38.6646 58.625C38.6646 58.0697 38.8852 57.5371 39.2778 57.1445C39.6705 56.7518 40.203 56.5312 40.7583 56.5312C43.9213 56.5312 46.1658 56.5312 47.9218 56.3861C49.6526 56.2465 50.7274 55.9757 51.5788 55.543C53.2856 54.6732 54.6732 53.2856 55.543 51.5788C55.9757 50.7274 56.2437 49.6526 56.3861 47.9218C56.5285 46.163 56.5312 43.9185 56.5312 40.7583C56.5312 40.203 56.7518 39.6705 57.1445 39.2778C57.5371 38.8852 58.0697 38.6646 58.625 38.6646ZM23.6454 44.5829C24.038 44.1908 24.5702 43.9706 25.125 43.9706C25.6798 43.9706 26.212 44.1908 26.6046 44.5829C28.2182 46.1937 30.7753 47.1094 33.5 47.1094C36.2247 47.1094 38.7818 46.1937 40.3954 44.5829C40.5871 44.3772 40.8182 44.2122 41.0751 44.0978C41.3319 43.9833 41.6092 43.9218 41.8903 43.9168C42.1714 43.9119 42.4507 43.9636 42.7114 44.0689C42.9721 44.1742 43.2089 44.331 43.4077 44.5298C43.6066 44.7286 43.7633 44.9654 43.8686 45.2261C43.9739 45.4868 44.0256 45.7661 44.0207 46.0472C44.0157 46.3283 43.9542 46.6056 43.8397 46.8624C43.7253 47.1193 43.5603 47.3504 43.3546 47.5421C40.7807 50.1188 37.0566 51.2969 33.5 51.2969C29.9434 51.2969 26.2193 50.1188 23.6454 47.5421C23.2533 47.1495 23.0331 46.6173 23.0331 46.0625C23.0331 45.5077 23.2533 44.9755 23.6454 44.5829Z" fill="#8600D9"/>
</svg>
