<svg width="77" height="77" viewBox="0 0 77 77" fill="none" xmlns="http://www.w3.org/2000/svg">
<path d="M38.5 44.9167L32.0833 38.5L38.5 32.0833L44.9167 38.5L38.5 44.9167ZM31.6823 26.0677L23.6614 18.0469L33.9281 7.78019C34.5698 7.13853 35.2917 6.65728 36.0937 6.33644C36.8958 6.01561 37.6979 5.85519 38.5 5.85519C39.3021 5.85519 40.1042 6.01561 40.9062 6.33644C41.7083 6.65728 42.4302 7.13853 43.0719 7.78019L53.3385 18.0469L45.3177 26.0677L38.5 19.25L31.6823 26.0677ZM18.0469 53.3385L7.78019 43.0719C7.13853 42.4302 6.65728 41.7083 6.33644 40.9062C6.01561 40.1042 5.85519 39.3021 5.85519 38.5C5.85519 37.6979 6.01561 36.8958 6.33644 36.0937C6.65728 35.2917 7.13853 34.5698 7.78019 33.9281L18.0469 23.6614L26.0677 31.6823L19.25 38.5L26.0677 45.3177L18.0469 53.3385ZM58.9531 53.3385L50.9323 45.3177L57.75 38.5L50.9323 31.6823L58.9531 23.6614L69.2198 33.9281C69.8615 34.5698 70.3427 35.2917 70.6635 36.0937C70.9844 36.8958 71.1448 37.6979 71.1448 38.5C71.1448 39.3021 70.9844 40.1042 70.6635 40.9062C70.3427 41.7083 69.8615 42.4302 69.2198 43.0719L58.9531 53.3385ZM33.9281 69.2198L23.6614 58.9531L31.6823 50.9323L38.5 57.75L45.3177 50.9323L53.3385 58.9531L43.0719 69.2198C42.4302 69.8615 41.7083 70.3427 40.9062 70.6635C40.1042 70.9844 39.3021 71.1448 38.5 71.1448C37.6979 71.1448 36.8958 70.9844 36.0937 70.6635C35.2917 70.3427 34.5698 69.8615 33.9281 69.2198Z" fill="url(#paint0_linear_13_30)" fill-opacity="0.92"/>
<defs>
<linearGradient id="paint0_linear_13_30" x1="38.5" y1="5.85519" x2="38.5" y2="71.1448" gradientUnits="userSpaceOnUse">
<stop stop-color="#8600D9"/>
<stop offset="1" stop-color="#470073" stop-opacity="0.92"/>
</linearGradient>
</defs>
</svg>